<?xml version="1.0" standalone="no"?>
<!DOCTYPE svg PUBLIC "-//W3C//DTD SVG 1.1//EN" "http://www.w3.org/Graphics/SVG/1.1/DTD/svg11.dtd">
<svg version="1.1" xmlns="http://www.w3.org/2000/svg" viewBox="0 0 1920 1200" width="1920" height="1200"><!-- svg-source:excalidraw --><metadata></metadata><defs><clipPath id="GHRZ6YxjGFWGJ-mR6ASwo"><rect transform="translate(0 0) rotate(0 960 600)" width="1920" height="1200.0000000000002"></rect></clipPath><style class="style-fonts">
      </style></defs><rect x="0" y="0" width="1920" height="1200" fill="#121212"></rect><g clip-path="url(#GHRZ6YxjGFWGJ-mR6ASwo)"><g stroke-linecap="round" transform="translate(-40 -100) rotate(0 1000 350)"><path d="M0 0 L2000 0 L2000 700 L0 700" stroke="none" stroke-width="0" fill="#154162"></path><path d="M0 0 C487.79 0, 975.58 0, 2000 0 M0 0 C672.2 0, 1344.4 0, 2000 0 M2000 0 C2000 249.67, 2000 499.34, 2000 700 M2000 0 C2000 172.02, 2000 344.04, 2000 700 M2000 700 C1278.9 700, 557.8 700, 0 700 M2000 700 C1235.1 700, 470.2 700, 0 700 M0 700 C0 484.65, 0 269.31, 0 0 M0 700 C0 466.73, 0 233.46, 0 0" stroke="#ededed00" stroke-width="4" fill="none"></path></g></g><g clip-path="url(#GHRZ6YxjGFWGJ-mR6ASwo)"><g stroke-linecap="round" transform="translate(-40 600) rotate(0 1000 350)"><path d="M0 0 L2000 0 L2000 700 L0 700" stroke="none" stroke-width="0" fill="#202325"></path><path d="M0 0 C739.29 0, 1478.58 0, 2000 0 M0 0 C559.34 0, 1118.68 0, 2000 0 M2000 0 C2000 249.08, 2000 498.15, 2000 700 M2000 0 C2000 250.27, 2000 500.54, 2000 700 M2000 700 C1434.61 700, 869.21 700, 0 700 M2000 700 C1318.88 700, 637.76 700, 0 700 M0 700 C0 443.43, 0 186.87, 0 0 M0 700 C0 489.97, 0 279.93, 0 0" stroke="#ededed00" stroke-width="4" fill="none"></path></g></g><g clip-path="url(#GHRZ6YxjGFWGJ-mR6ASwo)"><g stroke-linecap="round" transform="translate(1200 400) rotate(0 30 200)"><path d="M0 0 L60 0 L60 400 L0 400" stroke="none" stroke-width="0" fill="#5a2c2c"></path><path d="M0 0 C14.84 0, 29.69 0, 60 0 M0 0 C13.57 0, 27.14 0, 60 0 M60 0 C60 86.59, 60 173.17, 60 400 M60 0 C60 138.56, 60 277.12, 60 400 M60 400 C41.54 400, 23.07 400, 0 400 M60 400 C40.08 400, 20.15 400, 0 400 M0 400 C0 300.6, 0 201.19, 0 0 M0 400 C0 303.29, 0 206.58, 0 0" stroke="#ededed00" stroke-width="4" fill="none"></path></g></g><g clip-path="url(#GHRZ6YxjGFWGJ-mR6ASwo)"><g stroke-linecap="round" transform="translate(1260 360) rotate(0 30 240)"><path d="M0 0 L60 0 L60 480 L0 480" stroke="none" stroke-width="0" fill="#5a2c2c"></path><path d="M0 0 C23.59 0, 47.19 0, 60 0 M0 0 C21.68 0, 43.37 0, 60 0 M60 0 C60 135.77, 60 271.55, 60 480 M60 0 C60 188.84, 60 377.67, 60 480 M60 480 C36.82 480, 13.65 480, 0 480 M60 480 C41.7 480, 23.39 480, 0 480 M0 480 C0 293.43, 0 106.86, 0 0 M0 480 C0 314.12, 0 148.25, 0 0" stroke="#ededed00" stroke-width="4" fill="none"></path></g></g><g clip-path="url(#GHRZ6YxjGFWGJ-mR6ASwo)"><g stroke-linecap="round" transform="translate(1320 320) rotate(0 30 280)"><path d="M0 0 L60 0 L60 560 L0 560" stroke="none" stroke-width="0" fill="#5a2c2c"></path><path d="M0 0 C13.71 0, 27.43 0, 60 0 M0 0 C12.3 0, 24.59 0, 60 0 M60 0 C60 168.85, 60 337.71, 60 560 M60 0 C60 205.22, 60 410.45, 60 560 M60 560 C43.92 560, 27.83 560, 0 560 M60 560 C39.14 560, 18.27 560, 0 560 M0 560 C0 381.84, 0 203.68, 0 0 M0 560 C0 396.68, 0 233.37, 0 0" stroke="#ededed00" stroke-width="4" fill="none"></path></g></g><g clip-path="url(#GHRZ6YxjGFWGJ-mR6ASwo)"><g stroke-linecap="round" transform="translate(1380 300) rotate(0 30 300)"><path d="M0 0 L60 0 L60 600 L0 600" stroke="none" stroke-width="0" fill="#5a2c2c"></path><path d="M0 0 C18.49 0, 36.99 0, 60 0 M0 0 C19.91 0, 39.83 0, 60 0 M60 0 C60 209.6, 60 419.21, 60 600 M60 0 C60 145.29, 60 290.59, 60 600 M60 600 C40.2 600, 20.39 600, 0 600 M60 600 C47.4 600, 34.8 600, 0 600 M0 600 C0 364.76, 0 129.52, 0 0 M0 600 C0 434.95, 0 269.89, 0 0" stroke="#ededed00" stroke-width="4" fill="none"></path></g></g><g clip-path="url(#GHRZ6YxjGFWGJ-mR6ASwo)"><g stroke-linecap="round" transform="translate(1440 320) rotate(0 30 280)"><path d="M0 0 L60 0 L60 560 L0 560" stroke="none" stroke-width="0" fill="#5a2c2c"></path><path d="M0 0 C14.93 0, 29.86 0, 60 0 M0 0 C23.69 0, 47.39 0, 60 0 M60 0 C60 146.54, 60 293.08, 60 560 M60 0 C60 127.47, 60 254.93, 60 560 M60 560 C41.72 560, 23.44 560, 0 560 M60 560 C40.47 560, 20.95 560, 0 560 M0 560 C0 437.96, 0 315.93, 0 0 M0 560 C0 376.38, 0 192.75, 0 0" stroke="#ededed00" stroke-width="4" fill="none"></path></g></g><g clip-path="url(#GHRZ6YxjGFWGJ-mR6ASwo)"><g stroke-linecap="round" transform="translate(1500 340) rotate(0 30 260)"><path d="M0 0 L60 0 L60 520 L0 520" stroke="none" stroke-width="0" fill="#5a2c2c"></path><path d="M0 0 C21.4 0, 42.8 0, 60 0 M0 0 C14.74 0, 29.49 0, 60 0 M60 0 C60 187.49, 60 374.97, 60 520 M60 0 C60 198.87, 60 397.75, 60 520 M60 520 C41.54 520, 23.08 520, 0 520 M60 520 C40.01 520, 20.01 520, 0 520 M0 520 C0 320.57, 0 121.14, 0 0 M0 520 C0 342.83, 0 165.66, 0 0" stroke="#ededed00" stroke-width="4" fill="none"></path></g></g><g clip-path="url(#GHRZ6YxjGFWGJ-mR6ASwo)"><g stroke-linecap="round" transform="translate(1560 360) rotate(0 30 240)"><path d="M0 0 L60 0 L60 480 L0 480" stroke="none" stroke-width="0" fill="#5a2c2c"></path><path d="M0 0 C21.35 0, 42.7 0, 60 0 M0 0 C21.45 0, 42.9 0, 60 0 M60 0 C60 135.69, 60 271.39, 60 480 M60 0 C60 163.47, 60 326.94, 60 480 M60 480 C38.01 480, 16.02 480, 0 480 M60 480 C42 480, 23.99 480, 0 480 M0 480 C0 343.11, 0 206.23, 0 0 M0 480 C0 295.33, 0 110.66, 0 0" stroke="#ededed00" stroke-width="4" fill="none"></path></g></g><g clip-path="url(#GHRZ6YxjGFWGJ-mR6ASwo)"><g stroke-linecap="round" transform="translate(1620 380) rotate(0 30 220)"><path d="M0 0 L60 0 L60 440 L0 440" stroke="none" stroke-width="0" fill="#5a2c2c"></path><path d="M0 0 C12.99 0, 25.98 0, 60 0 M0 0 C20.78 0, 41.57 0, 60 0 M60 0 C60 135.4, 60 270.81, 60 440 M60 0 C60 146.1, 60 292.2, 60 440 M60 440 C45.09 440, 30.18 440, 0 440 M60 440 C45.49 440, 30.99 440, 0 440 M0 440 C0 327.43, 0 214.86, 0 0 M0 440 C0 293.21, 0 146.42, 0 0" stroke="#ededed00" stroke-width="4" fill="none"></path></g></g><g clip-path="url(#GHRZ6YxjGFWGJ-mR6ASwo)"><g stroke-linecap="round" transform="translate(1680 400) rotate(0 30 200)"><path d="M0 0 L60 0 L60 400 L0 400" stroke="none" stroke-width="0" fill="#5a2c2c"></path><path d="M0 0 C16.97 0, 33.94 0, 60 0 M0 0 C23.6 0, 47.21 0, 60 0 M60 0 C60 154.51, 60 309.02, 60 400 M60 0 C60 122.03, 60 244.06, 60 400 M60 400 C36.68 400, 13.36 400, 0 400 M60 400 C39.27 400, 18.53 400, 0 400 M0 400 C0 242.73, 0 85.46, 0 0 M0 400 C0 245.86, 0 91.73, 0 0" stroke="#ededed00" stroke-width="4" fill="none"></path></g></g><g clip-path="url(#GHRZ6YxjGFWGJ-mR6ASwo)"><g stroke-linecap="round" transform="translate(1740 420) rotate(0 30 180)"><path d="M0 0 L60 0 L60 360 L0 360" stroke="none" stroke-width="0" fill="#5a2c2c"></path><path d="M0 0 C18.09 0, 36.18 0, 60 0 M0 0 C21.99 0, 43.98 0, 60 0 M60 0 C60 96.5, 60 193, 60 360 M60 0 C60 125.19, 60 250.38, 60 360 M60 360 C40.91 360, 21.82 360, 0 360 M60 360 C42.5 360, 25 360, 0 360 M0 360 C0 256.41, 0 152.81, 0 0 M0 360 C0 257.74, 0 155.47, 0 0" stroke="#ededed00" stroke-width="4" fill="none"></path></g></g><g clip-path="url(#GHRZ6YxjGFWGJ-mR6ASwo)"><g stroke-linecap="round" transform="translate(1800 440) rotate(0 30 160)"><path d="M0 0 L60 0 L60 320 L0 320" stroke="none" stroke-width="0" fill="#5a2c2c"></path><path d="M0 0 C20.96 0, 41.92 0, 60 0 M0 0 C14.53 0, 29.06 0, 60 0 M60 0 C60 105.62, 60 211.24, 60 320 M60 0 C60 67.2, 60 134.4, 60 320 M60 320 C36.48 320, 12.95 320, 0 320 M60 320 C43.49 320, 26.99 320, 0 320 M0 320 C0 239.64, 0 159.28, 0 0 M0 320 C0 242.55, 0 165.11, 0 0" stroke="#ededed00" stroke-width="4" fill="none"></path></g></g><g clip-path="url(#GHRZ6YxjGFWGJ-mR6ASwo)"><g stroke-linecap="round" transform="translate(420 100) rotate(0 30 500)"><path d="M0 0 L60 0 L60 1000 L0 1000" stroke="none" stroke-width="0" fill="#043b0c"></path><path d="M0 0 C15.7 0, 31.4 0, 60 0 M0 0 C13.66 0, 27.31 0, 60 0 M60 0 C60 304.64, 60 609.28, 60 1000 M60 0 C60 325.44, 60 650.87, 60 1000 M60 1000 C46.92 1000, 33.85 1000, 0 1000 M60 1000 C40.33 1000, 20.65 1000, 0 1000 M0 1000 C0 756.04, 0 512.09, 0 0 M0 1000 C0 638.63, 0 277.25, 0 0" stroke="#ededed00" stroke-width="4" fill="none"></path></g></g><g clip-path="url(#GHRZ6YxjGFWGJ-mR6ASwo)"><g stroke-linecap="round" transform="translate(480 100) rotate(0 30 500)"><path d="M0 0 L60 0 L60 1000 L0 1000" stroke="none" stroke-width="0" fill="#043b0c"></path><path d="M0 0 C21.63 0, 43.27 0, 60 0 M0 0 C22.95 0, 45.89 0, 60 0 M60 0 C60 307.64, 60 615.27, 60 1000 M60 0 C60 333.25, 60 666.49, 60 1000 M60 1000 C36.99 1000, 13.98 1000, 0 1000 M60 1000 C39.56 1000, 19.12 1000, 0 1000 M0 1000 C0 695.84, 0 391.67, 0 0 M0 1000 C0 643.89, 0 287.79, 0 0" stroke="#ededed00" stroke-width="4" fill="none"></path></g></g><g clip-path="url(#GHRZ6YxjGFWGJ-mR6ASwo)"><g stroke-linecap="round" transform="translate(540 100) rotate(0 30 500)"><path d="M0 0 L60 0 L60 1000 L0 1000" stroke="none" stroke-width="0" fill="#043b0c"></path><path d="M0 0 C16.96 0, 33.92 0, 60 0 M0 0 C20.43 0, 40.87 0, 60 0 M60 0 C60 366.52, 60 733.05, 60 1000 M60 0 C60 300.05, 60 600.09, 60 1000 M60 1000 C42.89 1000, 25.78 1000, 0 1000 M60 1000 C36.92 1000, 13.83 1000, 0 1000 M0 1000 C0 724.96, 0 449.92, 0 0 M0 1000 C0 626.1, 0 252.19, 0 0" stroke="#ededed00" stroke-width="4" fill="none"></path></g></g><g clip-path="url(#GHRZ6YxjGFWGJ-mR6ASwo)"><g stroke-linecap="round" transform="translate(600 100) rotate(0 30 500)"><path d="M0 0 L60 0 L60 1000 L0 1000" stroke="none" stroke-width="0" fill="#043b0c"></path><path d="M0 0 C18.46 0, 36.93 0, 60 0 M0 0 C19.92 0, 39.85 0, 60 0 M60 0 C60 248.51, 60 497.02, 60 1000 M60 0 C60 241.78, 60 483.56, 60 1000 M60 1000 C44.65 1000, 29.3 1000, 0 1000 M60 1000 C39.98 1000, 19.97 1000, 0 1000 M0 1000 C0 766.63, 0 533.26, 0 0 M0 1000 C0 681.99, 0 363.99, 0 0" stroke="#ededed00" stroke-width="4" fill="none"></path></g></g><g clip-path="url(#GHRZ6YxjGFWGJ-mR6ASwo)"><g stroke-linecap="round" transform="translate(660 100) rotate(0 30 500)"><path d="M0 0 L60 0 L60 1000 L0 1000" stroke="none" stroke-width="0" fill="#043b0c"></path><path d="M0 0 C23.18 0, 46.35 0, 60 0 M0 0 C18.3 0, 36.61 0, 60 0 M60 0 C60 388.69, 60 777.38, 60 1000 M60 0 C60 345.58, 60 691.16, 60 1000 M60 1000 C36.41 1000, 12.82 1000, 0 1000 M60 1000 C36.88 1000, 13.76 1000, 0 1000 M0 1000 C0 782.44, 0 564.88, 0 0 M0 1000 C0 730.9, 0 461.8, 0 0" stroke="#ededed00" stroke-width="4" fill="none"></path></g></g><g clip-path="url(#GHRZ6YxjGFWGJ-mR6ASwo)"><g stroke-linecap="round" transform="translate(720 100) rotate(0 30 500)"><path d="M0 0 L60 0 L60 1000 L0 1000" stroke="none" stroke-width="0" fill="#043b0c"></path><path d="M0 0 C16.08 0, 32.17 0, 60 0 M0 0 C20.86 0, 41.73 0, 60 0 M60 0 C60 318.14, 60 636.29, 60 1000 M60 0 C60 291.63, 60 583.27, 60 1000 M60 1000 C42.73 1000, 25.47 1000, 0 1000 M60 1000 C42.96 1000, 25.91 1000, 0 1000 M0 1000 C0 744.24, 0 488.48, 0 0 M0 1000 C0 792.82, 0 585.63, 0 0" stroke="#ededed00" stroke-width="4" fill="none"></path></g></g><g clip-path="url(#GHRZ6YxjGFWGJ-mR6ASwo)"><g stroke-linecap="round" transform="translate(780 100) rotate(0 30 500)"><path d="M0 0 L60 0 L60 1000 L0 1000" stroke="none" stroke-width="0" fill="#043b0c"></path><path d="M0 0 C19.8 0, 39.61 0, 60 0 M0 0 C12.6 0, 25.2 0, 60 0 M60 0 C60 392.07, 60 784.14, 60 1000 M60 0 C60 275.09, 60 550.18, 60 1000 M60 1000 C44.93 1000, 29.86 1000, 0 1000 M60 1000 C45.48 1000, 30.96 1000, 0 1000 M0 1000 C0 706, 0 412.01, 0 0 M0 1000 C0 766.55, 0 533.09, 0 0" stroke="#ededed00" stroke-width="4" fill="none"></path></g></g><g clip-path="url(#GHRZ6YxjGFWGJ-mR6ASwo)"><g stroke-linecap="round" transform="translate(840 160) rotate(0 30 440)"><path d="M0 0 L60 0 L60 880 L0 880" stroke="none" stroke-width="0" fill="#043b0c"></path><path d="M0 0 C18.28 0, 36.56 0, 60 0 M0 0 C19.53 0, 39.05 0, 60 0 M60 0 C60 191.77, 60 383.54, 60 880 M60 0 C60 288.55, 60 577.1, 60 880 M60 880 C45.36 880, 30.73 880, 0 880 M60 880 C38.32 880, 16.64 880, 0 880 M0 880 C0 682.63, 0 485.25, 0 0 M0 880 C0 622.89, 0 365.78, 0 0" stroke="#ededed00" stroke-width="4" fill="none"></path></g></g></svg>